<?xml version="1.0" standalone="no"?>
<svg xmlns:xlink="http://www.w3.org/1999/xlink" id="wave" style="transform:rotate(0deg); transition: 0.3s" viewBox="0 0 1440 150" version="1.1" xmlns="http://www.w3.org/2000/svg">
    <defs>
        <linearGradient id="sw-gradient-0" x1="0" x2="0" y1="1" y2="0">
            <stop stop-color="rgba(185, 135, 243, 1)" offset="0%"/>
            <stop stop-color="rgba(91, 212, 236, 0)" offset="100%"/>
        </linearGradient>
    </defs>
    <path style="transform:translate(0, 0px); opacity:1" fill="url(#sw-gradient-0)" d="M0,0L80,7.5C160,15,320,30,480,52.5C640,75,800,105,960,107.5C1120,110,1280,85,1440,70C1600,55,1760,50,1920,52.5C2080,55,2240,65,2400,65C2560,65,2720,55,2880,60C3040,65,3200,85,3360,87.5C3520,90,3680,75,3840,60C4000,45,4160,30,4320,40C4480,50,4640,85,4800,82.5C4960,80,5120,40,5280,22.5C5440,5,5600,10,5760,10C5920,10,6080,5,6240,12.5C6400,20,6560,40,6720,47.5C6880,55,7040,50,7200,45C7360,40,7520,35,7680,47.5C7840,60,8000,90,8160,105C8320,120,8480,120,8640,110C8800,100,8960,80,9120,65C9280,50,9440,40,9600,50C9760,60,9920,90,10080,95C10240,100,10400,80,10560,70C10720,60,10880,60,11040,67.5C11200,75,11360,90,11440,97.5L11520,105L11520,150L11440,150C11360,150,11200,150,11040,150C10880,150,10720,150,10560,150C10400,150,10240,150,10080,150C9920,150,9760,150,9600,150C9440,150,9280,150,9120,150C8960,150,8800,150,8640,150C8480,150,8320,150,8160,150C8000,150,7840,150,7680,150C7520,150,7360,150,7200,150C7040,150,6880,150,6720,150C6560,150,6400,150,6240,150C6080,150,5920,150,5760,150C5600,150,5440,150,5280,150C5120,150,4960,150,4800,150C4640,150,4480,150,4320,150C4160,150,4000,150,3840,150C3680,150,3520,150,3360,150C3200,150,3040,150,2880,150C2720,150,2560,150,2400,150C2240,150,2080,150,1920,150C1760,150,1600,150,1440,150C1280,150,1120,150,960,150C800,150,640,150,480,150C320,150,160,150,80,150L0,150Z"/>
    <defs>
        <linearGradient id="sw-gradient-1" x1="0" x2="0" y1="1" y2="0">
            <stop stop-color="rgba(232, 162, 85, 1)" offset="0%"/>
            <stop stop-color="rgba(238, 206, 163, 0.25)" offset="100%"/>
        </linearGradient>
    </defs>
    <path style="transform:translate(0, 50px); opacity:0.9" fill="url(#sw-gradient-1)" d="M0,75L80,82.5C160,90,320,105,480,95C640,85,800,50,960,30C1120,10,1280,5,1440,25C1600,45,1760,90,1920,92.5C2080,95,2240,55,2400,32.5C2560,10,2720,5,2880,5C3040,5,3200,10,3360,20C3520,30,3680,45,3840,50C4000,55,4160,50,4320,52.5C4480,55,4640,65,4800,62.5C4960,60,5120,45,5280,35C5440,25,5600,20,5760,37.5C5920,55,6080,95,6240,105C6400,115,6560,95,6720,80C6880,65,7040,55,7200,52.5C7360,50,7520,55,7680,62.5C7840,70,8000,80,8160,70C8320,60,8480,30,8640,15C8800,0,8960,0,9120,15C9280,30,9440,60,9600,62.5C9760,65,9920,40,10080,45C10240,50,10400,85,10560,82.5C10720,80,10880,40,11040,35C11200,30,11360,60,11440,75L11520,90L11520,150L11440,150C11360,150,11200,150,11040,150C10880,150,10720,150,10560,150C10400,150,10240,150,10080,150C9920,150,9760,150,9600,150C9440,150,9280,150,9120,150C8960,150,8800,150,8640,150C8480,150,8320,150,8160,150C8000,150,7840,150,7680,150C7520,150,7360,150,7200,150C7040,150,6880,150,6720,150C6560,150,6400,150,6240,150C6080,150,5920,150,5760,150C5600,150,5440,150,5280,150C5120,150,4960,150,4800,150C4640,150,4480,150,4320,150C4160,150,4000,150,3840,150C3680,150,3520,150,3360,150C3200,150,3040,150,2880,150C2720,150,2560,150,2400,150C2240,150,2080,150,1920,150C1760,150,1600,150,1440,150C1280,150,1120,150,960,150C800,150,640,150,480,150C320,150,160,150,80,150L0,150Z"/>
</svg>