<?xml version="1.0" standalone="no"?>
<svg xmlns:xlink="http://www.w3.org/1999/xlink" id="wave" style="transform:rotate(0deg); transition: 0.3s" viewBox="0 0 1440 150" version="1.1" xmlns="http://www.w3.org/2000/svg">
   <defs>
      <linearGradient id="sw-gradient-0" x1="0" x2="0" y1="1" y2="0">
         <stop stop-color="rgba(185, 135, 243, 1)" offset="0%"/>
         <stop stop-color="rgba(91, 212, 236, 0.05)" offset="100%"/>
      </linearGradient>
   </defs>
   <path style="transform:translate(0, 0px); opacity:1" fill="url(#sw-gradient-0)" d="M0,0L80,32.7C160,65,320,131,480,179.7C640,229,800,261,960,228.7C1120,196,1280,98,1440,106.2C1600,114,1760,229,1920,245C2080,261,2240,180,2400,122.5C2560,65,2720,33,2880,24.5C3040,16,3200,33,3360,98C3520,163,3680,278,3840,343C4000,408,4160,425,4320,424.7C4480,425,4640,408,4800,351.2C4960,294,5120,196,5280,187.8C5440,180,5600,261,5760,261.3C5920,261,6080,180,6240,163.3C6400,147,6560,196,6720,220.5C6880,245,7040,245,7200,212.3C7360,180,7520,114,7680,114.3C7840,114,8000,180,8160,196C8320,212,8480,180,8640,171.5C8800,163,8960,180,9120,196C9280,212,9440,229,9600,204.2C9760,180,9920,114,10080,106.2C10240,98,10400,147,10560,187.8C10720,229,10880,261,11040,228.7C11200,196,11360,98,11440,49L11520,0L11520,490L11440,490C11360,490,11200,490,11040,490C10880,490,10720,490,10560,490C10400,490,10240,490,10080,490C9920,490,9760,490,9600,490C9440,490,9280,490,9120,490C8960,490,8800,490,8640,490C8480,490,8320,490,8160,490C8000,490,7840,490,7680,490C7520,490,7360,490,7200,490C7040,490,6880,490,6720,490C6560,490,6400,490,6240,490C6080,490,5920,490,5760,490C5600,490,5440,490,5280,490C5120,490,4960,490,4800,490C4640,490,4480,490,4320,490C4160,490,4000,490,3840,490C3680,490,3520,490,3360,490C3200,490,3040,490,2880,490C2720,490,2560,490,2400,490C2240,490,2080,490,1920,490C1760,490,1600,490,1440,490C1280,490,1120,490,960,490C800,490,640,490,480,490C320,490,160,490,80,490L0,490Z"/>
   <defs>
      <linearGradient id="sw-gradient-1" x1="0" x2="0" y1="1" y2="0">
         <stop stop-color="rgba(232, 162, 85, 1)" offset="0%"/>
         <stop stop-color="rgba(238, 206, 163, 0.2)" offset="100%"/>
      </linearGradient>
   </defs>
   <path style="transform:translate(0, 50px); opacity:0.9" fill="url(#sw-gradient-1)" d="M0,196L80,179.7C160,163,320,131,480,106.2C640,82,800,65,960,81.7C1120,98,1280,147,1440,147C1600,147,1760,98,1920,106.2C2080,114,2240,180,2400,236.8C2560,294,2720,343,2880,375.7C3040,408,3200,425,3360,424.7C3520,425,3680,408,3840,359.3C4000,310,4160,229,4320,171.5C4480,114,4640,82,4800,106.2C4960,131,5120,212,5280,228.7C5440,245,5600,196,5760,196C5920,196,6080,245,6240,261.3C6400,278,6560,261,6720,236.8C6880,212,7040,180,7200,138.8C7360,98,7520,49,7680,57.2C7840,65,8000,131,8160,196C8320,261,8480,327,8640,326.7C8800,327,8960,261,9120,245C9280,229,9440,261,9600,294C9760,327,9920,359,10080,343C10240,327,10400,261,10560,236.8C10720,212,10880,229,11040,220.5C11200,212,11360,180,11440,163.3L11520,147L11520,490L11440,490C11360,490,11200,490,11040,490C10880,490,10720,490,10560,490C10400,490,10240,490,10080,490C9920,490,9760,490,9600,490C9440,490,9280,490,9120,490C8960,490,8800,490,8640,490C8480,490,8320,490,8160,490C8000,490,7840,490,7680,490C7520,490,7360,490,7200,490C7040,490,6880,490,6720,490C6560,490,6400,490,6240,490C6080,490,5920,490,5760,490C5600,490,5440,490,5280,490C5120,490,4960,490,4800,490C4640,490,4480,490,4320,490C4160,490,4000,490,3840,490C3680,490,3520,490,3360,490C3200,490,3040,490,2880,490C2720,490,2560,490,2400,490C2240,490,2080,490,1920,490C1760,490,1600,490,1440,490C1280,490,1120,490,960,490C800,490,640,490,480,490C320,490,160,490,80,490L0,490Z"/>
   <defs>
      <linearGradient id="sw-gradient-2" x1="0" x2="0" y1="1" y2="0">
         <stop stop-color="rgba(91, 212, 236, 1)" offset="0%"/>
         <stop stop-color="rgba(238, 206, 163, 0)" offset="100%"/>
      </linearGradient>
   </defs>
   <path style="transform:translate(0, 100px); opacity:0.8" fill="url(#sw-gradient-2)" d="M0,0L80,73.5C160,147,320,294,480,310.3C640,327,800,212,960,187.8C1120,163,1280,229,1440,236.8C1600,245,1760,196,1920,163.3C2080,131,2240,114,2400,114.3C2560,114,2720,131,2880,114.3C3040,98,3200,49,3360,73.5C3520,98,3680,196,3840,196C4000,196,4160,98,4320,89.8C4480,82,4640,163,4800,204.2C4960,245,5120,245,5280,253.2C5440,261,5600,278,5760,285.8C5920,294,6080,294,6240,285.8C6400,278,6560,261,6720,228.7C6880,196,7040,147,7200,163.3C7360,180,7520,261,7680,285.8C7840,310,8000,278,8160,228.7C8320,180,8480,114,8640,122.5C8800,131,8960,212,9120,204.2C9280,196,9440,98,9600,73.5C9760,49,9920,98,10080,114.3C10240,131,10400,114,10560,89.8C10720,65,10880,33,11040,40.8C11200,49,11360,98,11440,122.5L11520,147L11520,490L11440,490C11360,490,11200,490,11040,490C10880,490,10720,490,10560,490C10400,490,10240,490,10080,490C9920,490,9760,490,9600,490C9440,490,9280,490,9120,490C8960,490,8800,490,8640,490C8480,490,8320,490,8160,490C8000,490,7840,490,7680,490C7520,490,7360,490,7200,490C7040,490,6880,490,6720,490C6560,490,6400,490,6240,490C6080,490,5920,490,5760,490C5600,490,5440,490,5280,490C5120,490,4960,490,4800,490C4640,490,4480,490,4320,490C4160,490,4000,490,3840,490C3680,490,3520,490,3360,490C3200,490,3040,490,2880,490C2720,490,2560,490,2400,490C2240,490,2080,490,1920,490C1760,490,1600,490,1440,490C1280,490,1120,490,960,490C800,490,640,490,480,490C320,490,160,490,80,490L0,490Z"/>
</svg>