<?xml version="1.0" standalone="no"?>
<!DOCTYPE svg PUBLIC "-//W3C//DTD SVG 20010904//EN"
 "http://www.w3.org/TR/2001/REC-SVG-20010904/DTD/svg10.dtd">
<svg version="1.0" xmlns="http://www.w3.org/2000/svg"
 width="1152.000000pt" height="1152.000000pt" viewBox="0 0 1152.000000 1152.000000"
 preserveAspectRatio="xMidYMid meet">
<metadata>
Created by potrace 1.14, written by Peter Selinger 2001-2017
</metadata>
<g transform="translate(0.000000,1152.000000) scale(0.100000,-0.100000)"
fill="#000000" stroke="none">
<path d="M5370 10723 c0 -4 -39 -8 -88 -9 -140 -1 -342 -22 -486 -50 -11 -2
-37 -7 -56 -10 -19 -4 -44 -9 -55 -11 -11 -2 -33 -6 -50 -9 -16 -3 -55 -12
-85 -20 -30 -9 -71 -19 -90 -24 -53 -12 -190 -56 -232 -73 -21 -9 -38 -14 -38
-12 0 2 -31 -9 -69 -25 -38 -15 -72 -26 -75 -22 -3 3 -6 0 -6 -6 0 -7 -5 -12
-11 -12 -5 0 -31 -10 -57 -22 -26 -12 -52 -23 -59 -24 -16 -3 -218 -106 -282
-144 -29 -16 -56 -30 -61 -30 -6 0 -10 -4 -10 -10 0 -5 -5 -10 -11 -10 -7 0
-37 -16 -68 -37 -31 -20 -87 -57 -126 -82 -38 -24 -74 -50 -80 -56 -5 -6 -23
-20 -40 -31 -16 -10 -37 -24 -45 -31 -121 -96 -145 -115 -218 -181 -113 -102
-232 -221 -232 -233 0 -7 -3 -9 -6 -6 -4 4 -18 -8 -33 -26 -42 -52 -64 -77
-93 -107 -16 -16 -28 -33 -28 -39 0 -6 -3 -11 -8 -11 -4 0 -32 -33 -62 -72
-30 -40 -58 -74 -62 -76 -5 -2 -8 -10 -8 -17 0 -8 -6 -18 -13 -22 -7 -4 -33
-39 -57 -78 -25 -38 -47 -72 -50 -75 -19 -17 -146 -246 -209 -375 -123 -254
-204 -478 -267 -735 -9 -40 -35 -158 -39 -185 -17 -97 -25 -145 -30 -185 -3
-25 -8 -56 -10 -70 -7 -42 -17 -181 -20 -265 -1 -44 -6 -98 -11 -120 -10 -51
-9 -44 -22 -90 -18 -64 -75 -343 -87 -430 -1 -11 -8 -58 -14 -105 -9 -63 -11
-804 -9 -2825 l3 -2740 80 1 c44 0 127 4 185 8 109 8 120 9 210 21 30 4 64 9
75 10 11 1 21 4 23 5 1 1 10 3 20 4 44 5 140 22 145 26 1 1 11 3 22 5 44 6 85
16 109 25 15 5 26 7 26 5 0 -2 11 0 26 5 14 6 39 12 57 15 45 8 360 115 372
126 5 5 15 9 23 9 37 0 358 158 517 253 61 37 123 74 140 84 16 10 36 24 43
31 7 6 23 17 35 23 11 7 26 16 31 20 6 5 52 39 101 77 50 37 95 71 101 77 6 5
33 28 59 50 168 140 358 335 497 510 34 44 68 86 75 93 7 7 20 26 30 42 9 17
21 30 25 30 4 0 8 7 8 15 0 8 3 15 8 15 4 0 21 23 37 51 17 27 38 59 48 71 9
12 17 25 17 29 0 4 6 14 13 21 6 8 18 24 25 37 75 130 144 259 166 307 18 41
25 45 81 44 8 0 22 0 30 0 8 0 38 0 65 1 28 1 53 -1 57 -4 3 -4 13 -2 22 3 10
5 23 5 31 0 7 -4 24 -4 36 0 14 6 26 5 29 0 3 -5 18 -5 34 0 16 4 32 6 34 3 8
-7 106 -8 113 -1 3 4 18 2 34 -2 16 -4 31 -6 34 -3 3 4 29 5 58 4 29 -1 60 -1
68 -1 8 0 24 0 35 0 11 -1 27 -1 35 0 8 0 24 0 35 0 11 -1 26 -1 33 -1 25 2
38 2 90 0 29 -1 55 0 58 4 3 3 18 1 34 -3 16 -4 31 -6 34 -3 7 8 105 7 113 0
3 -3 16 -2 29 3 13 5 26 5 29 1 3 -5 21 -5 40 -1 21 5 35 4 35 -2 0 -5 5 -6
11 -2 6 3 48 8 92 10 92 4 200 12 237 17 14 3 54 8 90 12 36 4 74 9 85 12 11
2 34 6 52 9 28 4 144 27 198 40 11 3 29 7 40 9 11 3 54 14 95 25 41 11 84 23
95 25 11 3 31 9 45 14 14 5 72 26 130 46 58 20 119 42 135 50 65 29 125 55
130 55 7 0 192 92 260 129 138 77 347 208 353 223 2 4 10 8 18 8 8 0 17 7 20
15 4 8 10 15 15 15 6 0 15 4 22 10 14 12 96 76 117 93 139 108 311 271 450
427 90 102 108 123 173 210 23 30 44 57 47 60 3 3 14 19 26 35 67 97 91 133
103 158 8 15 18 27 23 27 4 0 8 4 8 9 0 5 18 38 39 73 36 59 178 327 179 338
1 3 12 30 25 60 22 48 36 84 42 100 6 18 18 48 26 65 33 73 125 374 143 470 3
11 9 40 15 65 7 25 14 61 17 80 2 19 7 46 10 60 2 14 7 41 9 60 3 19 7 50 10
68 5 34 14 101 20 162 2 19 7 103 10 186 l7 151 -26 5 c-14 3 -26 2 -26 -2 0
-4 -16 -4 -35 0 -19 4 -35 4 -35 0 0 -4 -16 -4 -35 0 -19 4 -37 4 -40 -1 -3
-4 -16 -5 -28 0 -12 5 -31 5 -42 1 -19 -7 -74 -4 -82 4 -3 2 -18 0 -34 -4 -16
-5 -31 -5 -34 0 -3 5 -18 5 -33 1 -15 -5 -36 -5 -47 -1 -11 4 -30 4 -41 -1
-12 -4 -25 -5 -28 -1 -6 5 -86 6 -112 1 -5 -1 -11 -1 -14 0 -15 6 -390 5 -390
0 0 -4 -16 -3 -35 1 -19 4 -37 4 -40 -1 -3 -4 -16 -4 -29 1 -13 5 -26 7 -28 4
-9 -8 -64 -11 -83 -4 -11 4 -32 4 -46 0 -15 -4 -32 -4 -39 0 -7 5 -23 4 -36 0
-12 -5 -25 -6 -28 -3 -8 8 -196 9 -196 1 0 -4 -13 -3 -28 2 -16 4 -35 4 -43
-1 -8 -4 -21 -4 -29 1 -7 4 -23 4 -36 0 -12 -5 -25 -6 -28 -3 -8 8 -236 10
-236 2 0 -4 -16 -3 -35 1 -19 4 -37 4 -40 -1 -3 -4 -16 -5 -28 0 -12 5 -31 5
-42 1 -19 -7 -74 -4 -82 4 -3 2 -18 0 -34 -4 -16 -5 -31 -5 -34 0 -3 5 -18 5
-33 1 -15 -5 -36 -5 -47 -1 -11 4 -30 4 -41 -1 -12 -4 -25 -5 -28 -1 -6 5 -86
6 -112 1 -5 -1 -11 -1 -14 0 -15 6 -390 5 -390 0 0 -4 -16 -3 -35 1 -19 4 -37
4 -40 -1 -3 -4 -16 -5 -28 0 -12 5 -31 5 -42 1 -19 -7 -74 -4 -82 4 -3 2 -17
1 -32 -4 -16 -4 -34 -4 -41 0 -7 5 -23 4 -36 0 -12 -5 -25 -6 -28 -3 -7 8
-180 8 -193 0 -5 -3 -15 -2 -22 3 -8 4 -27 4 -42 0 -16 -5 -31 -5 -34 0 -3 5
-18 5 -34 0 -16 -4 -32 -6 -35 -3 -7 7 -140 8 -152 1 -5 -3 -18 -2 -29 2 -11
4 -30 4 -41 -1 -12 -4 -25 -5 -28 -2 -5 5 -125 7 -143 3 -20 -5 -40 -5 -58 1
-11 3 -32 3 -47 -2 -16 -4 -30 -3 -34 2 -3 5 -10 7 -15 3 -14 -8 -173 -9 -187
0 -7 4 -12 4 -12 -1 0 -4 -22 -9 -49 -10 -59 -2 -57 -7 -55 147 3 193 1 183
24 177 11 -3 20 -1 20 4 0 6 7 6 18 0 13 -7 22 -7 29 0 8 8 13 8 17 0 4 -6 15
-7 29 -2 12 5 31 5 42 1 11 -4 25 -3 32 2 7 5 14 5 18 -2 4 -7 12 -7 26 0 12
7 19 7 19 1 0 -7 8 -7 23 -2 12 5 32 5 44 0 13 -5 25 -4 28 1 4 7 13 7 24 0
12 -6 22 -5 29 2 9 9 15 9 24 0 7 -7 17 -8 29 -2 11 7 20 7 24 0 4 -6 15 -6
30 0 14 5 25 6 25 2 0 -4 25 -7 55 -7 30 0 55 3 55 7 0 4 11 3 25 -2 16 -6 25
-6 25 0 0 6 9 6 25 0 14 -5 25 -6 25 -2 0 4 42 7 93 8 86 0 208 8 287 19 19 2
57 7 84 10 27 3 59 7 70 10 12 2 37 7 56 9 32 5 211 42 235 49 6 2 36 9 67 16
32 7 60 17 64 22 3 5 9 7 14 4 13 -8 370 114 397 136 7 6 13 9 13 6 0 -4 21 4
47 18 26 13 51 21 55 19 4 -3 8 0 8 5 0 6 9 11 20 11 11 0 20 4 20 8 0 4 16
14 35 21 33 12 147 72 245 129 25 15 48 25 53 24 4 -1 7 3 7 8 0 6 7 10 15 10
8 0 15 5 15 10 0 6 7 10 15 10 8 0 15 5 15 10 0 6 6 10 13 10 7 0 23 9 35 20
12 11 24 20 27 20 3 0 36 23 75 50 39 28 75 50 81 50 5 0 7 5 4 10 -3 6 -2 10
3 10 13 0 166 121 262 208 134 122 256 248 360 373 19 23 47 55 63 72 15 18
27 34 27 38 0 3 8 15 18 27 9 12 26 33 37 47 11 14 26 32 33 40 6 7 12 18 12
22 0 5 8 18 18 29 42 47 207 320 233 387 6 15 15 27 20 27 5 0 9 5 9 11 0 7
18 49 40 95 22 46 58 130 81 186 22 57 44 112 49 123 5 11 21 58 35 105 15 47
29 92 32 100 4 8 7 20 8 25 2 6 8 30 15 55 7 25 14 53 16 62 2 10 7 28 10 41
3 12 7 29 9 37 2 8 4 15 5 15 2 0 9 35 16 85 3 25 8 49 11 53 2 4 6 21 8 38 9
67 16 115 20 129 3 8 7 42 10 75 3 33 7 74 10 90 2 17 6 101 10 189 6 156 5
158 -15 153 -11 -3 -20 -1 -20 4 0 6 -8 5 -19 -1 -12 -6 -22 -6 -26 -1 -3 6
-17 6 -34 1 -15 -4 -34 -4 -42 0 -7 5 -20 5 -29 0 -9 -5 -23 -4 -32 1 -10 6
-19 6 -23 0 -3 -6 -15 -7 -29 -1 -12 4 -29 4 -36 0 -8 -5 -19 -5 -25 0 -6 5
-17 5 -25 0 -8 -5 -21 -5 -31 1 -11 6 -20 5 -24 -1 -4 -7 -13 -7 -26 0 -13 8
-19 7 -19 0 0 -7 -6 -8 -18 -1 -10 5 -24 6 -32 1 -8 -5 -21 -5 -31 1 -11 6
-20 5 -24 -1 -3 -5 -15 -6 -29 0 -12 4 -29 4 -36 0 -8 -5 -19 -5 -25 0 -6 5
-17 5 -25 0 -8 -5 -21 -5 -31 1 -12 6 -20 5 -24 -1 -4 -6 -11 -8 -16 -4 -17
10 -59 12 -65 3 -3 -5 -14 -5 -24 1 -13 7 -21 7 -25 0 -4 -7 -12 -7 -25 0 -12
6 -21 6 -25 1 -5 -9 -42 -7 -53 3 -2 3 -13 1 -23 -4 -12 -7 -20 -7 -24 0 -4 7
-12 7 -24 0 -10 -5 -21 -6 -25 -3 -3 3 -22 6 -41 6 -19 0 -38 -3 -41 -6 -4 -3
-15 -2 -25 3 -12 7 -20 7 -24 0 -4 -6 -12 -7 -23 -1 -9 5 -26 5 -39 0 -14 -5
-23 -5 -23 1 0 6 -9 6 -25 0 -15 -6 -25 -6 -25 0 0 5 -12 5 -30 0 -16 -5 -30
-6 -30 -2 0 9 -58 8 -66 -1 -4 -3 -15 -2 -25 3 -12 7 -20 7 -24 0 -4 -7 -12
-7 -25 0 -12 6 -21 6 -25 1 -5 -9 -42 -7 -53 3 -2 3 -13 1 -23 -4 -12 -7 -20
-7 -24 0 -4 7 -12 7 -24 0 -10 -5 -21 -7 -24 -3 -9 8 -87 9 -87 1 0 -4 -11 -3
-25 2 -16 6 -25 6 -25 0 0 -6 -9 -6 -23 -1 -13 5 -30 5 -37 1 -8 -5 -18 -6
-23 -3 -12 7 -126 7 -134 0 -3 -4 -13 -2 -22 3 -10 5 -23 5 -31 0 -8 -5 -21
-5 -31 1 -11 6 -20 5 -24 -1 -3 -5 -15 -6 -29 0 -12 4 -29 4 -36 0 -8 -5 -19
-5 -25 0 -6 5 -17 5 -25 0 -8 -5 -21 -5 -31 1 -11 6 -20 5 -24 -1 -4 -7 -13
-7 -26 0 -13 8 -19 7 -19 0 0 -7 -6 -8 -18 -1 -10 5 -24 6 -32 1 -8 -5 -21 -5
-31 1 -11 6 -20 5 -24 -1 -3 -5 -15 -6 -28 -1 -13 5 -30 5 -39 0 -11 -6 -19
-5 -23 1 -4 6 -13 7 -24 1 -10 -6 -23 -6 -31 -1 -8 5 -19 5 -25 0 -6 -5 -17
-5 -25 0 -7 4 -24 4 -36 0 -14 -6 -26 -5 -29 0 -3 6 -15 6 -30 0 -16 -6 -25
-6 -25 0 0 6 -9 6 -24 0 -13 -5 -26 -7 -28 -4 -9 8 -99 10 -104 2 -3 -5 -10
-6 -15 -2 -16 9 -80 11 -85 2 -3 -5 -14 -4 -24 2 -13 7 -21 7 -25 0 -4 -7 -12
-7 -25 0 -12 6 -21 6 -25 1 -5 -9 -42 -7 -53 3 -2 3 -13 1 -23 -4 -12 -7 -20
-7 -24 0 -4 7 -12 7 -25 0 -10 -6 -21 -6 -24 -2 -5 9 -59 8 -75 -2 -5 -4 -12
-2 -16 3 -4 7 -15 7 -30 1 -14 -5 -25 -6 -25 -1 0 5 -18 5 -40 1 -22 -4 -43
-3 -46 1 -3 5 -14 5 -24 -1 -13 -7 -21 -7 -25 0 -4 7 -12 7 -25 0 -11 -6 -21
-6 -25 -1 -3 6 -17 6 -35 1 -17 -5 -32 -5 -35 0 -3 5 -16 5 -30 0 -15 -6 -25
-6 -25 0 0 5 -12 5 -29 0 -16 -4 -31 -6 -34 -4 -7 8 -97 10 -97 2 0 -4 -11 -3
-25 2 -15 6 -26 6 -30 0 -4 -6 -13 -7 -24 -1 -10 6 -23 6 -31 1 -8 -5 -21 -5
-31 1 -11 6 -20 5 -24 -1 -3 -5 -15 -6 -29 0 -12 4 -29 4 -36 0 -8 -5 -19 -5
-25 0 -6 5 -17 5 -25 0 -8 -5 -21 -5 -31 1 -11 6 -20 5 -24 -1 -4 -6 -13 -7
-23 -1 -9 5 -26 5 -37 1 -11 -4 -28 -3 -37 2 -10 5 -18 5 -18 1z"/>
</g>
</svg>
